<mxfile host="65bd71144e">
    <diagram id="IZaMaNv83GGYVcbvc7Aa" name="Page-1">
        <mxGraphModel dx="983" dy="719" grid="0" gridSize="10" guides="1" tooltips="1" connect="1" arrows="1" fold="1" page="1" pageScale="1" pageWidth="1100" pageHeight="850" math="0" shadow="0">
            <root>
                <mxCell id="0"/>
                <mxCell id="1" parent="0"/>
                <mxCell id="2" value="&lt;h1&gt;Request:&lt;/h1&gt;&lt;p&gt;A commodity futures trading firm would like to ingest daily prices of 3 commodities into their cloud database for technical analysis. You are handed a historic data csv and are tasked with formatting this into BigQuery and appending new records each day.&lt;/p&gt;" style="text;html=1;strokeColor=none;fillColor=none;spacing=5;spacingTop=-20;whiteSpace=wrap;overflow=hidden;rounded=0;" parent="1" vertex="1">
                    <mxGeometry x="10" y="20" width="230" height="180" as="geometry"/>
                </mxCell>
                <mxCell id="18" style="edgeStyle=none;html=1;" parent="1" source="3" target="4" edge="1">
                    <mxGeometry relative="1" as="geometry"/>
                </mxCell>
                <mxCell id="3" value="" style="shape=image;verticalLabelPosition=bottom;labelBackgroundColor=default;verticalAlign=top;aspect=fixed;imageAspect=0;image=https://www.logo.wine/a/logo/Google_Storage/Google_Storage-Logo.wine.svg;" parent="1" vertex="1">
                    <mxGeometry x="496.57000000000005" y="260" width="164.85" height="110" as="geometry"/>
                </mxCell>
                <mxCell id="20" style="edgeStyle=none;html=1;" parent="1" source="4" target="19" edge="1">
                    <mxGeometry relative="1" as="geometry"/>
                </mxCell>
                <mxCell id="4" value="" style="shape=image;verticalLabelPosition=bottom;labelBackgroundColor=default;verticalAlign=top;aspect=fixed;imageAspect=0;image=https://www.ancoris.com/hubfs/Google%20Cloud%20Logos/Cloud%20Composer.png;" parent="1" vertex="1">
                    <mxGeometry x="539.9999999999999" y="447" width="78" height="78" as="geometry"/>
                </mxCell>
                <mxCell id="5" value="" style="shape=image;verticalLabelPosition=bottom;labelBackgroundColor=default;verticalAlign=top;aspect=fixed;imageAspect=0;image=https://cdn.icon-icons.com/icons2/2699/PNG/512/google_bigquery_logo_icon_168150.png;" parent="1" vertex="1">
                    <mxGeometry x="539.9999999999999" y="130" width="82" height="82" as="geometry"/>
                </mxCell>
                <mxCell id="6" value="&lt;h1&gt;Scopes&lt;/h1&gt;&lt;p&gt;Data Source: Yahoo Finance API&lt;/p&gt;&lt;p&gt;Data Format: Structured table data, Time-Series&lt;br&gt;&lt;/p&gt;&lt;p&gt;Data Dimensions: Commodity Tickers&lt;/p&gt;&lt;p&gt;&amp;nbsp; &amp;nbsp;* Soybeans (ZS)&lt;/p&gt;&lt;p&gt;&amp;nbsp; &amp;nbsp;* Brent Crude (EB)&lt;/p&gt;&lt;p&gt;&amp;nbsp; &amp;nbsp;* Natural Gas (NG)&lt;/p&gt;&lt;p&gt;Data Metrics: Price&lt;/p&gt;&lt;p&gt;Schedule: Daily - close prices&lt;/p&gt;" style="text;html=1;strokeColor=none;fillColor=none;spacing=5;spacingTop=-20;whiteSpace=wrap;overflow=hidden;rounded=0;" parent="1" vertex="1">
                    <mxGeometry x="10" y="190" width="230" height="290" as="geometry"/>
                </mxCell>
                <mxCell id="7" value="&lt;h1&gt;Airflow DAG&lt;/h1&gt;&lt;p&gt;commodity_write_append.py&lt;/p&gt;&lt;p&gt;&lt;span style=&quot;background-color: initial;&quot;&gt;&lt;b&gt;T&lt;/b&gt;&lt;/span&gt;&lt;b style=&quot;background-color: initial;&quot;&gt;emporary Storage Bucket:&amp;nbsp;&lt;/b&gt;&lt;/p&gt;&lt;p&gt;&lt;span style=&quot;background-color: initial;&quot;&gt;buckets/tmp_commodity_uuid&lt;/span&gt;&lt;/p&gt;&lt;p&gt;&lt;b&gt;&lt;br&gt;&lt;/b&gt;&lt;/p&gt;&lt;p&gt;&lt;b&gt;Functions:&lt;/b&gt;&lt;/p&gt;&lt;p&gt;extract_from_database()&lt;/p&gt;&lt;p&gt;extract_from_yfinance()&lt;/p&gt;&lt;p&gt;identify_unique_records()&lt;/p&gt;" style="text;html=1;strokeColor=none;fillColor=none;spacing=5;spacingTop=-20;whiteSpace=wrap;overflow=hidden;rounded=0;" parent="1" vertex="1">
                    <mxGeometry x="300" y="465" width="240" height="265" as="geometry"/>
                </mxCell>
                <mxCell id="8" value="&lt;h1&gt;Tasks&lt;/h1&gt;&lt;p&gt;generate_uuid (for unique csv storage)&lt;/p&gt;&lt;p&gt;&amp;nbsp; &amp;nbsp;create_bucket (to store commodity data)&lt;/p&gt;&lt;p&gt;&amp;nbsp; &amp;nbsp; &amp;nbsp; extract_from_db_task&lt;/p&gt;&lt;p&gt;&lt;span style=&quot;white-space: pre;&quot;&gt;&#9;&lt;/span&gt;&amp;nbsp; extract_from_yfinance_task&lt;/p&gt;&lt;p&gt;&amp;nbsp; &amp;nbsp; &amp;nbsp; &amp;nbsp; &amp;nbsp; &amp;nbsp; &amp;nbsp; identify_unique&lt;/p&gt;&lt;p&gt;&lt;span style=&quot;white-space: pre;&quot;&gt;&#9;&lt;/span&gt;&amp;nbsp; &amp;nbsp; &amp;nbsp; &amp;nbsp; &amp;nbsp; load_to_bq&lt;br&gt;&lt;/p&gt;&lt;p&gt;&lt;span style=&quot;white-space: pre;&quot;&gt;&#9;&lt;/span&gt;&amp;nbsp; &amp;nbsp; &amp;nbsp; &amp;nbsp; &amp;nbsp; &amp;nbsp; &amp;nbsp;delete_bucket&lt;br&gt;&lt;/p&gt;" style="text;html=1;strokeColor=none;fillColor=none;spacing=5;spacingTop=-20;whiteSpace=wrap;overflow=hidden;rounded=0;" parent="1" vertex="1">
                    <mxGeometry x="690" y="465" width="240" height="265" as="geometry"/>
                </mxCell>
                <mxCell id="9" value="&lt;h1&gt;Airflow Location&lt;/h1&gt;&lt;h1&gt;&lt;p style=&quot;font-size: 12px; font-weight: 400;&quot;&gt;Google Cloud Storage:&lt;/p&gt;&lt;p style=&quot;font-size: 12px; font-weight: 400;&quot;&gt;buckets/us-central-1-van-environment-uuid-bucket/dags&lt;/p&gt;&lt;/h1&gt;" style="text;html=1;strokeColor=none;fillColor=none;spacing=5;spacingTop=-20;whiteSpace=wrap;overflow=hidden;rounded=0;" parent="1" vertex="1">
                    <mxGeometry x="300" y="290" width="220" height="120" as="geometry"/>
                </mxCell>
                <mxCell id="10" value="&lt;h1&gt;Database Location&lt;/h1&gt;&lt;h1&gt;&lt;p style=&quot;font-size: 12px;&quot;&gt;Google BigQuery table:&lt;/p&gt;&lt;p style=&quot;font-size: 12px; font-weight: 400;&quot;&gt;e-commerce-demo-v.dag_examples.commodity_prices&lt;/p&gt;&lt;/h1&gt;" style="text;html=1;strokeColor=none;fillColor=none;spacing=5;spacingTop=-20;whiteSpace=wrap;overflow=hidden;rounded=0;" parent="1" vertex="1">
                    <mxGeometry x="300" y="130" width="230" height="120" as="geometry"/>
                </mxCell>
                <mxCell id="15" style="edgeStyle=none;html=1;exitX=1;exitY=1;exitDx=0;exitDy=0;entryX=0.5;entryY=0;entryDx=0;entryDy=0;" parent="1" source="11" target="12" edge="1">
                    <mxGeometry relative="1" as="geometry"/>
                </mxCell>
                <mxCell id="11" value="" style="ellipse;whiteSpace=wrap;html=1;aspect=fixed;strokeColor=#00FF00;" parent="1" vertex="1">
                    <mxGeometry x="661.42" y="515" width="20" height="20" as="geometry"/>
                </mxCell>
                <mxCell id="16" style="edgeStyle=none;html=1;exitX=1;exitY=1;exitDx=0;exitDy=0;entryX=0.5;entryY=0;entryDx=0;entryDy=0;" parent="1" source="12" target="13" edge="1">
                    <mxGeometry relative="1" as="geometry"/>
                </mxCell>
                <mxCell id="12" value="" style="ellipse;whiteSpace=wrap;html=1;aspect=fixed;strokeColor=#00FF00;" parent="1" vertex="1">
                    <mxGeometry x="674.42" y="541" width="20" height="20" as="geometry"/>
                </mxCell>
                <mxCell id="17" style="edgeStyle=none;html=1;exitX=1;exitY=1;exitDx=0;exitDy=0;entryX=0.5;entryY=0;entryDx=0;entryDy=0;" parent="1" source="13" target="14" edge="1">
                    <mxGeometry relative="1" as="geometry"/>
                </mxCell>
                <mxCell id="13" value="" style="ellipse;whiteSpace=wrap;html=1;aspect=fixed;strokeColor=#00FF00;" parent="1" vertex="1">
                    <mxGeometry x="686.42" y="567" width="20" height="20" as="geometry"/>
                </mxCell>
                <mxCell id="23" style="edgeStyle=none;html=1;exitX=1;exitY=1;exitDx=0;exitDy=0;entryX=0.5;entryY=0;entryDx=0;entryDy=0;" parent="1" source="14" target="21" edge="1">
                    <mxGeometry relative="1" as="geometry"/>
                </mxCell>
                <mxCell id="14" value="" style="ellipse;whiteSpace=wrap;html=1;aspect=fixed;strokeColor=#00FF00;" parent="1" vertex="1">
                    <mxGeometry x="698.42" y="592" width="20" height="20" as="geometry"/>
                </mxCell>
                <mxCell id="19" value="" style="shape=image;verticalLabelPosition=bottom;labelBackgroundColor=default;verticalAlign=top;aspect=fixed;imageAspect=0;image=https://cdn.icon-icons.com/icons2/2699/PNG/512/google_bigquery_logo_icon_168150.png;" parent="1" vertex="1">
                    <mxGeometry x="537.9999999999999" y="640" width="82" height="82" as="geometry"/>
                </mxCell>
                <mxCell id="24" style="edgeStyle=none;html=1;exitX=1;exitY=1;exitDx=0;exitDy=0;entryX=0.5;entryY=0;entryDx=0;entryDy=0;" parent="1" source="21" target="22" edge="1">
                    <mxGeometry relative="1" as="geometry"/>
                </mxCell>
                <mxCell id="21" value="" style="ellipse;whiteSpace=wrap;html=1;aspect=fixed;strokeColor=#00FF00;" parent="1" vertex="1">
                    <mxGeometry x="710.42" y="618" width="20" height="20" as="geometry"/>
                </mxCell>
                <mxCell id="29" style="edgeStyle=none;html=1;exitX=1;exitY=1;exitDx=0;exitDy=0;entryX=0.5;entryY=0;entryDx=0;entryDy=0;" parent="1" source="22" target="25" edge="1">
                    <mxGeometry relative="1" as="geometry"/>
                </mxCell>
                <mxCell id="22" value="" style="ellipse;whiteSpace=wrap;html=1;aspect=fixed;strokeColor=#00FF00;" parent="1" vertex="1">
                    <mxGeometry x="722.42" y="644" width="20" height="20" as="geometry"/>
                </mxCell>
                <mxCell id="25" value="" style="ellipse;whiteSpace=wrap;html=1;aspect=fixed;strokeColor=#00FF00;" parent="1" vertex="1">
                    <mxGeometry x="735.42" y="671" width="20" height="20" as="geometry"/>
                </mxCell>
            </root>
        </mxGraphModel>
    </diagram>
</mxfile>